<?xml version="1.0" encoding="UTF-8" standalone="no"?>
<svg
   id="Layer_1"
   data-name="Layer 1"
   viewBox="0 0 792 145"
   version="1.1"
   sodipodi:docname="MAST-Logo-Horizontal.svg"
   width="792"
   height="145"
   inkscape:version="1.2.2 (b0a8486, 2022-12-01)"
   xmlns:inkscape="http://www.inkscape.org/namespaces/inkscape"
   xmlns:sodipodi="http://sodipodi.sourceforge.net/DTD/sodipodi-0.dtd"
   xmlns="http://www.w3.org/2000/svg"
   xmlns:svg="http://www.w3.org/2000/svg"
   xmlns:rdf="http://www.w3.org/1999/02/22-rdf-syntax-ns#"
   xmlns:cc="http://creativecommons.org/ns#"
   xmlns:dc="http://purl.org/dc/elements/1.1/">
  <sodipodi:namedview
     id="namedview226"
     pagecolor="#ffffff"
     bordercolor="#000000"
     borderopacity="0.25"
     inkscape:showpageshadow="2"
     inkscape:pageopacity="0.0"
     inkscape:pagecheckerboard="0"
     inkscape:deskcolor="#d1d1d1"
     showgrid="false"
     inkscape:zoom="1.0907007"
     inkscape:cx="348.85832"
     inkscape:cy="312.18465"
     inkscape:window-width="2043"
     inkscape:window-height="1111"
     inkscape:window-x="211"
     inkscape:window-y="94"
     inkscape:window-maximized="0"
     inkscape:current-layer="Layer_1" />
  <defs
     id="defs15">
    <style
       id="style2">.cls-1,.cls-2,.cls-3{fill:#fff;}.cls-1,.cls-2{stroke:#fff;stroke-linecap:round;stroke-linejoin:round;}.cls-1{stroke-width:2.07px;}.cls-2{stroke-width:1.04px;}.cls-4{fill:url(#linear-gradient);}.cls-5{fill:#89b8e3;}</style>
    <linearGradient
       id="linear-gradient"
       x1="689.94"
       y1="368.82001"
       x2="689.94"
       y2="237.72"
       gradientTransform="rotate(180,395.74,187.3)"
       gradientUnits="userSpaceOnUse">
      <stop
         offset="0"
         stop-color="#055694"
         id="stop4" />
      <stop
         offset="0.24"
         stop-color="#2070ad"
         id="stop6" />
      <stop
         offset="0.5"
         stop-color="#3483c1"
         id="stop8" />
      <stop
         offset="0.75"
         stop-color="#408fcc"
         id="stop10" />
      <stop
         offset="1"
         stop-color="#4493d0"
         id="stop12" />
    </linearGradient>
  </defs>
  <title
     id="title17">MAST Logo Horizontal</title>
  <line
     class="cls-1"
     x1="182.62"
     y1="6.5"
     x2="182.62"
     y2="133.75"
     id="line19" />
  <line
     class="cls-2"
     x1="187.86"
     y1="6.5"
     x2="187.86"
     y2="133.75"
     id="line21" />
  <line
     class="cls-1"
     x1="193.11"
     y1="6.5"
     x2="193.11"
     y2="133.75"
     id="line23" />
  <path
     class="cls-3"
     d="m 208.49,31.78 h 5.94 l 14.66,37.16 14.6,-37.16 h 5.94 v 42.39 h -4 V 37.54 h -0.12 L 231,74.17 h -3.8 L 212.66,37.54 h -0.12 v 36.63 h -4 z"
     id="path25" />
  <path
     class="cls-3"
     d="m 257.76,31.78 h 4 v 42.39 h -4 z"
     id="path27" />
  <path
     class="cls-3"
     d="m 270.05,31.78 h 4 v 22.8 l 24.63,-22.8 h 5.46 l -18.93,17.51 19.83,24.88 h -5.23 l -17.63,-22.09 -8.13,7.54 v 14.55 h -4 z"
     id="path29" />
  <path
     class="cls-3"
     d="m 307.51,31.78 h 4 V 58 c -0.05,9.86 4.64,13.6 12.41,13.6 7.77,0 12.53,-3.74 12.47,-13.6 V 31.78 h 4 v 27.13 c 0,8.73 -4.69,16.15 -16.51,16.15 -11.82,0 -16.44,-7.42 -16.44,-16.15 z"
     id="path31" />
  <path
     class="cls-3"
     d="m 347.1,31.78 h 4 v 39 h 23.75 v 3.44 H 347.1 Z"
     id="path33" />
  <path
     class="cls-3"
     d="m 379.93,60.22 c -0.18,8.72 6.12,11.4 13.83,11.4 4.46,0 11.22,-2.44 11.22,-8.61 0,-4.81 -4.8,-6.71 -8.72,-7.66 L 386.82,53 c -5,-1.24 -9.56,-3.62 -9.56,-10.21 0,-4.15 2.67,-11.93 14.6,-11.93 8.37,0 15.74,4.51 15.68,13.18 h -4 c -0.24,-6.47 -5.58,-9.74 -11.58,-9.74 -5.52,0 -10.62,2.14 -10.62,8.43 0,4 3,5.64 6.41,6.47 L 398,51.79 c 6,1.6 11,4.21 11,11.16 0,2.91 -1.19,12.11 -16.21,12.11 -10,0 -17.39,-4.51 -16.92,-14.84 z"
     id="path35" />
  <path
     class="cls-3"
     d="m 415.07,31.78 h 4 v 22.8 l 24.64,-22.8 h 5.46 l -18.94,17.51 19.83,24.88 h -5.22 l -17.64,-22.09 -8.13,7.54 v 14.55 h -4 z"
     id="path37" />
  <path
     class="cls-3"
     d="m 452.89,31.78 h 4 v 42.39 h -4 z"
     id="path39" />
  <path
     class="cls-3"
     d="M 499.49,31.78 H 504 l 16.62,42.39 h -4.33 L 511.12,61 h -19.29 l -5.1,13.18 h -4.34 z m -6.41,25.77 h 16.68 l -8.19,-21.73 z"
     id="path41" />
  <path
     class="cls-3"
     d="m 525.07,31.78 h 19.42 c 7,0 12.88,3.38 12.88,11 0,5.35 -2.79,9.74 -8.25,10.81 v 0.12 c 5.52,0.71 7.12,4.51 7.42,9.55 0.18,2.91 0.18,8.73 2,10.87 H 554 c -1,-1.66 -1,-4.81 -1.12,-6.59 -0.36,-5.94 -0.83,-12.53 -8.49,-12.23 h -15.28 v 18.82 h -4 z m 4,20.13 h 15.08 c 4.93,0 9.14,-3.09 9.14,-8.26 0,-5.17 -3.08,-8.43 -9.14,-8.43 h -15.04 z"
     id="path43" />
  <path
     class="cls-3"
     d="m 594.71,44.6 a 12.86,12.86 0 0 0 -13,-10.27 c -11.22,0 -16,9.38 -16,18.64 0,9.26 4.75,18.65 16,18.65 7.83,0 12.82,-6.06 13.59,-13.6 h 4 c -1.13,10.39 -7.72,17 -17.63,17 -13.36,0 -20,-10.51 -20,-22.09 0,-11.58 6.65,-22.08 20,-22.08 8,0 16,4.81 17,13.71 z"
     id="path45" />
  <path
     class="cls-3"
     d="m 604.56,31.78 h 4 v 18.4 h 25.17 v -18.4 h 4 v 42.39 h -4 V 53.63 H 608.6 v 20.54 h -4 z"
     id="path47" />
  <path
     class="cls-3"
     d="m 646.65,31.78 h 4 v 42.39 h -4 z"
     id="path49" />
  <path
     class="cls-3"
     d="m 655.44,31.78 h 4.33 l 13.77,37.94 h 0.12 l 13.66,-37.94 h 4.27 l -15.73,42.39 h -4.69 z"
     id="path51" />
  <path
     class="cls-3"
     d="m 695.92,31.78 h 29.27 v 3.44 H 700 v 15.32 h 23.63 V 54 H 700 v 16.75 h 25.53 v 3.44 h -29.61 z"
     id="path53" />
  <path
     class="cls-3"
     d="m 210.12,8.82 h 6 c 2.38,0 4.53,0.83 4.53,3.46 a 3.2,3.2 0 0 1 -2.45,3.17 v 0 a 3.31,3.31 0 0 1 3,3.44 c 0,1.35 -0.48,4 -5.07,4 h -6 z m 1.34,6.19 h 4.63 c 2.16,0 3.19,-1.07 3.19,-2.39 0,-1.76 -1.09,-2.65 -3.19,-2.65 h -4.63 z m 0,6.79 h 4.63 c 2,0 3.72,-0.65 3.72,-2.91 0,-1.8 -1.36,-2.73 -3.72,-2.73 h -4.63 z"
     id="path55" />
  <path
     class="cls-3"
     d="m 223.43,15.86 c 0.12,-2.39 1.8,-3.42 4.14,-3.42 1.8,0 3.76,0.55 3.76,3.28 v 5.43 a 0.67,0.67 0 0 0 0.73,0.75 1.18,1.18 0 0 0 0.4,-0.08 v 1.05 a 3.42,3.42 0 0 1 -0.81,0.08 c -1.27,0 -1.47,-0.71 -1.47,-1.78 v 0 a 3.9,3.9 0 0 1 -3.72,2.08 c -1.88,0 -3.42,-0.93 -3.42,-3 0,-2.87 2.79,-3 5.48,-3.29 1,-0.12 1.6,-0.26 1.6,-1.38 0,-1.69 -1.2,-2.1 -2.67,-2.1 -1.47,0 -2.69,0.71 -2.73,2.37 z m 6.65,1.51 v 0 c -0.16,0.29 -0.71,0.39 -1,0.45 -2.11,0.38 -4.75,0.36 -4.75,2.36 a 2.13,2.13 0 0 0 2.28,2 3.28,3.28 0 0 0 3.56,-3.21 z"
     id="path57" />
  <path
     class="cls-3"
     d="m 234.3,12.74 h 1.14 v 2.39 0 a 3.78,3.78 0 0 1 3.86,-2.53 v 1.24 a 3.53,3.53 0 0 0 -3.8,3.67 V 23 h -1.2 z"
     id="path59" />
  <path
     class="cls-3"
     d="m 241,8.82 h 1.25 v 5.86 0 a 3.63,3.63 0 0 1 3.54,-2.24 c 3.11,0 4.6,2.51 4.6,5.4 0,2.89 -1.49,5.41 -4.6,5.41 a 3.84,3.84 0 0 1 -3.64,-2.24 v 0 V 23 H 241 Z m 4.83,4.67 c -2.65,0 -3.58,2.23 -3.58,4.35 0,2.12 0.93,4.36 3.58,4.36 2.38,0 3.35,-2.24 3.35,-4.36 0,-2.12 -0.97,-4.35 -3.35,-4.35 z"
     id="path61" />
  <path
     class="cls-3"
     d="m 252.72,15.86 c 0.12,-2.39 1.8,-3.42 4.13,-3.42 1.81,0 3.77,0.55 3.77,3.28 v 5.43 a 0.66,0.66 0 0 0 0.73,0.75 1.12,1.12 0 0 0 0.39,-0.08 v 1.05 a 3.32,3.32 0 0 1 -0.81,0.08 c -1.26,0 -1.46,-0.71 -1.46,-1.78 v 0 a 3.9,3.9 0 0 1 -3.72,2.08 c -1.88,0 -3.43,-0.93 -3.43,-3 0,-2.87 2.79,-3 5.49,-3.29 1,-0.12 1.6,-0.26 1.6,-1.38 0,-1.69 -1.21,-2.1 -2.67,-2.1 -1.46,0 -2.7,0.71 -2.73,2.37 z m 6.65,1.51 v 0 c -0.16,0.29 -0.71,0.39 -1.05,0.45 -2.12,0.38 -4.75,0.36 -4.75,2.36 a 2.13,2.13 0 0 0 2.28,2 3.28,3.28 0 0 0 3.56,-3.21 z"
     id="path63" />
  <path
     class="cls-3"
     d="m 263.58,12.74 h 1.15 v 2.39 0 a 3.77,3.77 0 0 1 3.86,-2.53 v 1.24 a 3.53,3.53 0 0 0 -3.8,3.67 V 23 h -1.25 z"
     id="path65" />
  <path
     class="cls-3"
     d="m 270.17,15.86 c 0.12,-2.39 1.8,-3.42 4.14,-3.42 1.8,0 3.76,0.55 3.76,3.28 v 5.43 a 0.67,0.67 0 0 0 0.73,0.75 1.18,1.18 0 0 0 0.4,-0.08 v 1.05 a 3.46,3.46 0 0 1 -0.82,0.08 c -1.26,0 -1.46,-0.71 -1.46,-1.78 v 0 a 3.9,3.9 0 0 1 -3.72,2.08 c -1.88,0 -3.42,-0.93 -3.42,-3 0,-2.87 2.79,-3 5.48,-3.29 1,-0.12 1.6,-0.26 1.6,-1.38 0,-1.69 -1.21,-2.1 -2.67,-2.1 -1.46,0 -2.69,0.71 -2.73,2.37 z m 6.65,1.51 v 0 c -0.16,0.29 -0.71,0.39 -1,0.45 -2.11,0.38 -4.75,0.36 -4.75,2.36 a 2.13,2.13 0 0 0 2.28,2 3.28,3.28 0 0 0 3.56,-3.21 z"
     id="path67" />
  <path
     class="cls-3"
     d="m 291.39,8.82 h 1.5 L 298.43,23 H 297 l -1.73,-4.4 h -6.43 l -1.7,4.4 h -1.45 z m -2.14,8.59 h 5.56 l -2.73,-7.25 z"
     id="path69" />
  <path
     class="cls-3"
     d="m 300.68,23 v -2.1 h 1.67 V 23 Z"
     id="path71" />
  <path
     class="cls-3"
     d="M 737.72,74.87 V 64.19 h 1.37 v 9.08 h 6.08 V 65.2 h 1.37 v 8.07 h 8 v 1.6 z"
     id="path73" />
  <path
     class="cls-3"
     d="m 737.37,54.59 c 0,-5.28 4.17,-7.92 8.77,-7.92 4.6,0 8.77,2.64 8.77,7.92 0,5.28 -4.17,8 -8.77,8 -4.6,0 -8.77,-2.69 -8.77,-8 z m 16.17,0 c 0,-4.43 -3.72,-6.32 -7.4,-6.32 -3.68,0 -7.41,1.89 -7.41,6.32 0,4.43 3.73,6.34 7.41,6.34 3.68,0 7.4,-1.88 7.4,-6.34 z"
     id="path75" />
  <path
     class="cls-3"
     d="m 737.72,43.6 v -7.71 c 0,-2.79 1.34,-5.12 4.39,-5.12 a 4.05,4.05 0 0 1 4.29,3.28 v 0 c 0.29,-2.2 1.8,-2.83 3.8,-2.95 1.16,-0.07 3.47,-0.07 4.32,-0.78 v 1.77 a 6.73,6.73 0 0 1 -2.62,0.45 c -2.36,0.14 -5,0.33 -4.86,3.37 V 42 h 7.48 v 1.61 z m 8,-1.61 v -6 a 3.34,3.34 0 0 0 -3.27,-3.63 c -2.06,0 -3.35,1.23 -3.35,3.63 v 6 z"
     id="path77" />
  <path
     class="cls-3"
     d="m 210,117.93 c -0.18,8.73 6.11,11.4 13.83,11.4 4.45,0 11.22,-2.44 11.22,-8.61 0,-4.81 -4.81,-6.71 -8.73,-7.66 l -9.44,-2.31 c -5,-1.25 -9.55,-3.62 -9.55,-10.21 0,-4.16 2.67,-11.94 14.6,-11.94 8.37,0 15.73,4.52 15.67,13.18 h -4 c -0.24,-6.47 -5.58,-9.73 -11.58,-9.73 -5.52,0 -10.63,2.13 -10.63,8.43 0,4 3,5.64 6.41,6.47 l 10.33,2.55 c 6,1.6 11,4.22 11,11.16 0,2.91 -1.19,12.11 -16.21,12.11 -10,0 -17.39,-4.51 -16.92,-14.84 z"
     id="path79" />
  <path
     class="cls-3"
     d="m 244,89.49 h 18.82 c 7.6,0 12.59,4.46 12.59,12.11 0,7.65 -5,12.12 -12.59,12.12 h -14.77 v 18.16 h -4 z m 4,20.78 h 13.89 c 5.58,0 9.44,-2.85 9.44,-8.67 0,-5.82 -3.86,-8.66 -9.44,-8.66 h -13.84 z"
     id="path81" />
  <path
     class="cls-3"
     d="M 286.46,89.49 H 291 l 16.62,42.39 h -4.33 L 298.12,118.7 H 278.8 l -5.11,13.18 h -4.33 z m -6.41,25.77 h 16.68 l -8.19,-21.73 z"
     id="path83" />
  <path
     class="cls-3"
     d="m 340.24,102.32 a 12.85,12.85 0 0 0 -13,-10.27 c -11.22,0 -16,9.38 -16,18.64 0,9.26 4.75,18.64 16,18.64 7.84,0 12.82,-6.06 13.6,-13.6 h 4 c -1.13,10.39 -7.71,17 -17.63,17 -13.36,0 -20,-10.51 -20,-22.08 0,-11.57 6.65,-22.09 20,-22.09 8,0 16,4.81 17,13.72 z"
     id="path85" />
  <path
     class="cls-3"
     d="m 350.51,89.49 h 29.27 v 3.45 h -25.23 v 15.31 h 23.63 v 3.45 h -23.63 v 16.74 h 25.53 v 3.44 h -29.57 z"
     id="path87" />
  <path
     class="cls-3"
     d="m 400.08,89.49 h 33.6 v 3.45 H 418.9 v 38.94 h -4 V 92.94 h -14.82 z"
     id="path89" />
  <path
     class="cls-3"
     d="m 437.66,89.49 h 29.26 v 3.45 h -25.23 v 15.31 h 23.63 v 3.45 h -23.63 v 16.74 h 25.53 v 3.44 h -29.56 z"
     id="path91" />
  <path
     class="cls-3"
     d="m 472.86,89.49 h 4 v 38.95 h 23.74 v 3.44 h -27.74 z"
     id="path93" />
  <path
     class="cls-3"
     d="M 504.74,89.49 H 534 v 3.45 h -25.23 v 15.31 h 23.63 v 3.45 h -23.63 v 16.74 h 25.53 v 3.44 h -29.56 z"
     id="path95" />
  <path
     class="cls-3"
     d="m 541.84,117.93 c -0.18,8.73 6.11,11.4 13.83,11.4 4.45,0 11.22,-2.44 11.22,-8.61 0,-4.81 -4.81,-6.71 -8.73,-7.66 l -9.43,-2.31 c -5,-1.25 -9.56,-3.62 -9.56,-10.21 0,-4.16 2.67,-11.94 14.6,-11.94 8.37,0 15.73,4.52 15.67,13.18 h -4 c -0.24,-6.47 -5.58,-9.73 -11.58,-9.73 -5.52,0 -10.63,2.13 -10.63,8.43 0,4 3,5.64 6.42,6.47 L 560,109.5 c 6,1.6 11,4.22 11,11.16 0,2.91 -1.19,12.11 -16.21,12.11 -10,0 -17.39,-4.51 -16.92,-14.84 z"
     id="path97" />
  <path
     class="cls-3"
     d="m 607.73,102.32 a 12.84,12.84 0 0 0 -13,-10.27 c -11.22,0 -16,9.38 -16,18.64 0,9.26 4.75,18.64 16,18.64 7.84,0 12.83,-6.06 13.6,-13.6 h 4 c -1.12,10.39 -7.71,17 -17.63,17 -13.35,0 -20,-10.51 -20,-22.08 0,-11.57 6.65,-22.09 20,-22.09 8,0 16,4.81 17,13.72 z"
     id="path99" />
  <path
     class="cls-3"
     d="m 635.69,88.6 c 13.3,0 19.95,10.51 19.95,22.09 0,11.58 -6.65,22.08 -19.95,22.08 -13.3,0 -20,-10.51 -20,-22.08 0,-11.57 6.65,-22.09 20,-22.09 z m 0,40.73 c 11.16,0 15.91,-9.38 15.91,-18.64 0,-9.26 -4.75,-18.64 -15.91,-18.64 -11.16,0 -16,9.38 -16,18.64 0,9.26 4.78,18.64 16,18.64 z"
     id="path101" />
  <path
     class="cls-3"
     d="m 660.45,89.49 h 18.82 c 7.6,0 12.58,4.46 12.58,12.11 0,7.65 -5,12.12 -12.58,12.12 h -14.79 v 18.16 h -4 z m 4,20.78 h 13.9 c 5.58,0 9.44,-2.85 9.44,-8.67 0,-5.82 -3.86,-8.66 -9.44,-8.66 h -13.9 z"
     id="path103" />
  <path
     class="cls-3"
     d="m 696.36,89.49 h 29.27 v 3.45 H 700.4 v 15.31 H 724 v 3.45 h -23.6 v 16.74 h 25.53 v 3.44 h -29.57 z"
     id="path105" />
  <path
     class="cls-3"
     d="m 732.4,117.93 c -0.18,8.73 6.11,11.4 13.83,11.4 4.45,0 11.22,-2.44 11.22,-8.61 0,-4.81 -4.81,-6.71 -8.73,-7.66 l -9.44,-2.31 c -5,-1.25 -9.56,-3.62 -9.56,-10.21 0,-4.16 2.68,-11.94 14.61,-11.94 8.37,0 15.73,4.52 15.67,13.18 h -4 c -0.23,-6.47 -5.58,-9.73 -11.57,-9.73 -5.52,0 -10.63,2.13 -10.63,8.43 0,4 3,5.64 6.41,6.47 l 10.33,2.55 c 6,1.6 11,4.22 11,11.16 0,2.91 -1.19,12.11 -16.21,12.11 -10,0 -17.4,-4.51 -16.92,-14.84 z"
     id="path107" />
  <path
     class="cls-4"
     d="M 36,71.33 A 65.56,65.56 0 1 1 101.56,136.88 65.56,65.56 0 0 1 36,71.33 Z"
     id="path109"
     style="fill:url(#linear-gradient)" />
  <path
     class="cls-5"
     d="M 101.58,1.92 A 69.49,69.49 0 1 0 171.11,71.41 69.59,69.59 0 0 0 101.58,1.92 Z m 0,136.23 a 66.75,66.75 0 1 1 66.78,-66.74 66.84,66.84 0 0 1 -66.78,66.74 z"
     id="path111" />
  <path
     class="cls-3"
     d="m 69.63,57.82 a 0.47,0.47 0 0 1 -0.93,0 0.47,0.47 0 1 1 0.93,0 z"
     id="path113" />
  <path
     class="cls-3"
     d="m 147.2,43.52 a 0.58,0.58 0 0 1 -1.13,0 0.58,0.58 0 0 1 1.13,0 z"
     id="path115" />
  <path
     class="cls-3"
     d="m 126.43,23.29 a 0.52,0.52 0 1 1 -0.52,-0.52 0.52,0.52 0 0 1 0.52,0.52 z"
     id="path117" />
  <path
     class="cls-3"
     d="m 135,36.12 a 0.51,0.51 0 0 1 -0.51,0.52 0.52,0.52 0 0 1 -0.53,-0.52 0.53,0.53 0 0 1 0.53,-0.52 0.52,0.52 0 0 1 0.51,0.52 z"
     id="path119" />
  <path
     class="cls-3"
     d="m 144.4,55.49 a 0.66,0.66 0 0 1 -0.65,0.65 0.65,0.65 0 0 1 0,-1.3 0.66,0.66 0 0 1 0.65,0.65 z"
     id="path121" />
  <path
     class="cls-3"
     d="m 148.83,60.44 a 0.63,0.63 0 1 1 -1.26,0 0.64,0.64 0 0 1 0.63,-0.64 0.63,0.63 0 0 1 0.63,0.64 z"
     id="path123" />
  <path
     class="cls-3"
     d="m 77.68,29.24 a 0.52,0.52 0 1 1 -0.52,-0.52 0.52,0.52 0 0 1 0.52,0.52 z"
     id="path125" />
  <path
     class="cls-3"
     d="m 152.11,94.38 a 0.39,0.39 0 1 1 -0.39,-0.39 0.38,0.38 0 0 1 0.39,0.39 z"
     id="path127" />
  <path
     class="cls-3"
     d="m 141.89,69.25 a 0.52,0.52 0 0 1 -1,0 0.52,0.52 0 1 1 1,0 z"
     id="path129" />
  <path
     class="cls-3"
     d="m 90.66,66.16 a 0.52,0.52 0 1 1 -0.52,-0.52 0.52,0.52 0 0 1 0.52,0.52 z"
     id="path131" />
  <path
     class="cls-3"
     d="m 101.29,67.59 a 0.52,0.52 0 0 1 -0.52,0.52 0.52,0.52 0 0 1 -0.52,-0.52 0.53,0.53 0 0 1 0.52,-0.52 0.52,0.52 0 0 1 0.52,0.52 z"
     id="path133" />
  <path
     class="cls-3"
     d="m 153.67,46.2 a 0.52,0.52 0 0 1 -0.52,0.52 0.52,0.52 0 0 1 -0.52,-0.52 0.52,0.52 0 0 1 0.52,-0.52 0.53,0.53 0 0 1 0.52,0.52 z"
     id="path135" />
  <path
     class="cls-3"
     d="m 125.81,57.92 a 0.39,0.39 0 0 1 -0.38,0.4 0.4,0.4 0 0 1 -0.4,-0.4 0.39,0.39 0 0 1 0.4,-0.38 0.38,0.38 0 0 1 0.38,0.38 z"
     id="path137" />
  <path
     class="cls-3"
     d="m 62.33,39.15 a 0.27,0.27 0 0 1 -0.26,0.27 0.27,0.27 0 0 1 0,-0.53 0.26,0.26 0 0 1 0.26,0.26 z"
     id="path139" />
  <path
     class="cls-3"
     d="m 109.78,54.39 a 0.27,0.27 0 0 1 -0.26,0.27 0.26,0.26 0 0 1 -0.26,-0.27 0.25,0.25 0 0 1 0.26,-0.25 0.26,0.26 0 0 1 0.26,0.25 z"
     id="path141" />
  <path
     class="cls-3"
     d="m 92.69,92.23 a 0.31,0.31 0 0 1 -0.33,0.27 0.3,0.3 0 0 1 -0.32,-0.27 0.33,0.33 0 0 1 0.65,0 z"
     id="path143" />
  <path
     class="cls-3"
     d="m 82.46,55.55 a 0.39,0.39 0 0 1 -0.39,0.39 0.4,0.4 0 0 1 -0.39,-0.39 0.39,0.39 0 0 1 0.39,-0.39 0.38,0.38 0 0 1 0.39,0.39 z"
     id="path145" />
  <path
     class="cls-3"
     d="m 92.49,38.86 a 0.52,0.52 0 1 1 -0.52,-0.52 0.52,0.52 0 0 1 0.52,0.52 z"
     id="path147" />
  <path
     class="cls-3"
     d="m 96.51,15.74 a 0.39,0.39 0 0 1 -0.39,0.4 0.4,0.4 0 0 1 0,-0.79 0.39,0.39 0 0 1 0.39,0.39 z"
     id="path149" />
  <path
     class="cls-3"
     d="M 68.76,68.4 A 0.26,0.26 0 1 1 68.5,68.13 0.26,0.26 0 0 1 68.76,68.4 Z"
     id="path151" />
  <path
     class="cls-3"
     d="M 66,74.31 A 0.68,0.68 0 1 1 65.32,73.62 0.68,0.68 0 0 1 66,74.31 Z"
     id="path153" />
  <path
     class="cls-3"
     d="m 158.76,52.54 a 0.72,0.72 0 1 1 -0.72,-0.65 0.69,0.69 0 0 1 0.72,0.65 z"
     id="path155" />
  <path
     class="cls-3"
     d="m 159.86,75.27 a 0.65,0.65 0 1 1 -0.65,-0.65 0.65,0.65 0 0 1 0.65,0.65 z"
     id="path157" />
  <path
     class="cls-3"
     d="m 56.85,73.68 a 0.45,0.45 0 0 1 -0.89,0 0.45,0.45 0 0 1 0.89,0 z"
     id="path159" />
  <path
     class="cls-3"
     d="m 154.75,38.18 a 0.53,0.53 0 1 1 -0.53,-0.52 0.52,0.52 0 0 1 0.53,0.52 z"
     id="path161" />
  <path
     class="cls-3"
     d="m 86.81,82 a 0.4,0.4 0 1 1 -0.4,-0.4 0.4,0.4 0 0 1 0.4,0.4 z"
     id="path163" />
  <path
     class="cls-3"
     d="m 80,81.42 a 0.52,0.52 0 0 1 -0.52,0.52 0.52,0.52 0 0 1 0,-1 0.52,0.52 0 0 1 0.52,0.48 z"
     id="path165" />
  <path
     class="cls-3"
     d="m 104.7,20.06 a 0.44,0.44 0 0 1 -0.43,0.43 0.43,0.43 0 0 1 -0.43,-0.43 0.43,0.43 0 0 1 0.43,-0.43 0.43,0.43 0 0 1 0.43,0.43 z"
     id="path167" />
  <path
     class="cls-3"
     d="m 78.28,46.21 a 1.07,1.07 0 1 1 -1.06,-1.06 1.07,1.07 0 0 1 1.06,1.06 z"
     id="path169" />
  <path
     class="cls-3"
     d="m 89.47,31.75 a 1,1 0 1 1 -1,-1.05 1,1 0 0 1 1,1.05 z"
     id="path171" />
  <path
     class="cls-3"
     d="m 104.1,41.75 a 0.9,0.9 0 1 1 -0.9,-0.89 0.9,0.9 0 0 1 0.9,0.89 z"
     id="path173" />
  <path
     class="cls-3"
     d="m 53,60.17 a 1,1 0 1 1 -1,-1 1,1 0 0 1 1,1 z"
     id="path175" />
  <path
     class="cls-3"
     d="M 57.49,38 A 0.81,0.81 0 1 1 56.68,37.19 0.81,0.81 0 0 1 57.49,38 Z"
     id="path177" />
  <path
     class="cls-3"
     d="m 151.46,62.68 a 0.57,0.57 0 1 1 -0.57,-0.58 0.57,0.57 0 0 1 0.57,0.58 z"
     id="path179" />
  <path
     class="cls-3"
     d="m 85.27,14.49 a 0.29,0.29 0 1 1 -0.28,-0.29 0.29,0.29 0 0 1 0.28,0.29 z"
     id="path181" />
  <path
     class="cls-3"
     d="M 126.92,37 A 0.22,0.22 0 1 1 126.7,36.77 0.22,0.22 0 0 1 126.92,37 Z"
     id="path183" />
  <path
     class="cls-3"
     d="m 100.36,14.81 a 0.38,0.38 0 0 0 0.75,0 0.38,0.38 0 0 0 -0.75,0 z"
     id="path185" />
  <path
     class="cls-3"
     d="m 71.66,71.65 a 0.29,0.29 0 1 1 -0.29,-0.29 0.29,0.29 0 0 1 0.29,0.29 z"
     id="path187" />
  <path
     class="cls-3"
     d="m 55.59,79 a 0.43,0.43 0 0 0 0.43,0.43 0.43,0.43 0 0 0 0,-0.86 0.43,0.43 0 0 0 -0.43,0.43 z"
     id="path189" />
  <path
     class="cls-3"
     d="M 43.29,75 A 0.43,0.43 0 1 0 43.72,74.57 0.43,0.43 0 0 0 43.29,75 Z"
     id="path191" />
  <path
     class="cls-3"
     d="m 61.47,92.29 a 0.29,0.29 0 0 1 -0.29,0.29 0.29,0.29 0 0 1 0,-0.57 0.29,0.29 0 0 1 0.29,0.28 z"
     id="path193" />
  <path
     class="cls-3"
     d="m 156.67,57.53 a 0.28,0.28 0 0 1 -0.28,0.29 0.29,0.29 0 0 1 0,-0.58 0.28,0.28 0 0 1 0.28,0.29 z"
     id="path195" />
  <path
     class="cls-3"
     d="M 73,48.62 A 0.29,0.29 0 1 1 72.72,48.33 0.29,0.29 0 0 1 73,48.62 Z"
     id="path197" />
  <path
     class="cls-3"
     d="M 64.17,25 A 0.29,0.29 0 1 1 63.89,24.71 0.29,0.29 0 0 1 64.17,25 Z"
     id="path199" />
  <path
     class="cls-3"
     d="m 150.67,68.12 a 0.43,0.43 0 1 1 -0.86,0 0.43,0.43 0 1 1 0.86,0 z"
     id="path201" />
  <path
     class="cls-3"
     d="m 118.75,66.52 a 0.29,0.29 0 1 1 -0.58,0 0.29,0.29 0 0 1 0.58,0 z"
     id="path203" />
  <path
     class="cls-3"
     d="m 83.16,86.24 a 0.57,0.57 0 0 1 -0.57,0.57 0.58,0.58 0 0 1 -0.57,-0.57 0.57,0.57 0 0 1 0.57,-0.57 0.56,0.56 0 0 1 0.57,0.57 z"
     id="path205" />
  <path
     class="cls-3"
     d="m 96.68,97.46 a 0.43,0.43 0 0 1 -0.43,0.43 0.43,0.43 0 0 1 -0.43,-0.43 0.43,0.43 0 0 1 0.43,-0.43 0.44,0.44 0 0 1 0.43,0.43 z"
     id="path207" />
  <path
     class="cls-3"
     d="m 80.83,64.14 a 0.29,0.29 0 0 1 -0.29,0.28 0.29,0.29 0 0 1 0,-0.57 0.29,0.29 0 0 1 0.29,0.29 z"
     id="path209" />
  <path
     class="cls-3"
     d="m 114.28,93.64 a 0.29,0.29 0 0 1 -0.29,0.29 0.28,0.28 0 0 1 -0.28,-0.29 0.27,0.27 0 0 1 0.28,-0.28 0.28,0.28 0 0 1 0.29,0.28 z"
     id="path211" />
  <path
     class="cls-3"
     d="m 76.48,94.16 a 0.29,0.29 0 1 1 -0.29,-0.29 0.29,0.29 0 0 1 0.29,0.29 z"
     id="path213" />
  <path
     class="cls-3"
     d="m 52.34,99.17 a 0.29,0.29 0 1 1 -0.29,-0.29 0.29,0.29 0 0 1 0.29,0.29 z"
     id="path215" />
  <path
     class="cls-3"
     d="m 149.07,49.67 a 0.28,0.28 0 0 1 -0.28,0.29 0.29,0.29 0 1 1 0,-0.57 0.28,0.28 0 0 1 0.28,0.28 z"
     id="path217" />
  <path
     class="cls-3"
     d="m 94.55,39.87 a 0.29,0.29 0 0 1 -0.29,0.29 0.28,0.28 0 0 1 -0.28,-0.29 0.27,0.27 0 0 1 0.28,-0.28 0.28,0.28 0 0 1 0.29,0.28 z"
     id="path219" />
  <path
     class="cls-3"
     d="m 148,56.87 a 0.29,0.29 0 0 1 -0.58,0 0.29,0.29 0 0 1 0.58,0 z"
     id="path221" />
  <path
     d="m 136.7,108.19 -3.65,-0.51 c -0.86,-3.95 -1.73,-7.89 -2.57,-11.84 l -1.61,-7.46 8.68,6.46 q 9,6.75 18.16,13.41 l 0.4,-0.6 q -8.82,-7 -17.73,-13.9 l -10,-7.81 -1.45,-6.68 22.9,3.89 a 0.49,0.49 0 0 0 0.57,-0.4 0.49,0.49 0 0 0 -0.4,-0.57 l -6.08,-1.13 a 0.65,0.65 0 0 0 0,-0.24 L 113.45,13 v 0 a 0.94,0.94 0 0 0 -0.77,-0.52 l -0.15,-2.28 a 0.50062461,0.50062461 0 0 0 -1,0.05 l 0.1,5.88 a 1,1 0 0 0 -0.4,0.35 L 80,69.2 73.48,68 v 0 a 1.08,1.08 0 0 0 -0.36,2.12 l 29.57,5 -0.11,0.73 -0.65,4.45 -41.4,17.2 -3.44,-0.5 v 0 a 1.1336776,1.1336776 0 1 0 -0.28,2.25 l 41.6,5.2 -0.07,0.42 c -1.24,8.9 -3.38,21.91 -4.63,31.5 l 1.06,0.13 c 1.57,-9.55 3.42,-22.58 4.76,-31.46 l 0.07,-0.44 10.39,1.3 0.92,0.11 -1.6,30.38 a 65.31,65.31 0 0 0 10.43,-2.1 l -2.74,-27.46 11.05,1.39 c 0.82,4.84 2.57,15.47 3.67,21.31 l 1,-0.51 c -0.89,-5.84 -2.57,-16 -3.38,-20.64 l 2.55,0.33 c 0.83,4 2.5,13.27 3.61,18.71 0.42,-0.25 0.84,-0.51 1.25,-0.78 -1,-5.37 -2.6,-14 -3.42,-17.75 l 3.24,0.41 c 5.6,0.73 11.19,1.45 16.77,2.23 l 0.81,-1.06 q -8.75,-1.09 -17.45,-2.28 z M 81.19,69.42 110.56,21.1 102.92,73.45 Z m 22.66,5.92 6.48,1.1 v 0.38 l -7.13,3 0.54,-3.74 z m -5.23,27.54 -35.64,-5 38.6,-15.25 z m 12.38,1.73 -0.81,-0.11 -10.38,-1.5 3,-20.93 7.53,-3 0.25,9.3 c -3.17,0.28 -5.44,1 -5.44,1.84 0,0.51 0.84,1 2.18,1.32 a 5.83,5.83 0 0 0 4,4.93 z m 0.48,-29.57 -7.36,-1.37 7.64,-52.45 0.91,53.39 A 7.11,7.11 0 0 0 111.45,75 Z m 12.76,3.76 1.54,0.26 1.2,5.8 -2,-1.52 m -2.26,-13.08 -6.1,-35.34 7.14,34.55 1.69,8.16 -1.5,-0.28 z m 0.84,12 -5.83,-4.54 5.2,0.88 z m 19.06,-1.42 -16,-3 -1.86,-8.57 L 114,19.67 113.7,17.93 Z M 121.53,70.49 122.68,77.14 117,76.06 V 75.3 a 0.15,0.15 0 0 0 0,-0.06 l -3.49,-52 z m -4.68,35 -0.89,-9 a 5.8,5.8 0 0 0 3.71,-4.81 c 1.34,-0.35 2.19,-0.81 2.19,-1.33 0,-0.72 -1.68,-1.35 -4.14,-1.69 l -0.52,-8.41 v 0 -0.49 l 6.82,5.08 2.16,12.55 q 0.85,4.81 1.66,9.64 z m 12.24,1.7 c -0.59,-3.34 -1.18,-6.68 -1.73,-10 l -2,-11.29 2,1.52 1.81,8.77 c 0.8,3.79 1.57,7.58 2.35,11.38 z"
     id="path223" />
  <metadata
     id="metadata455">
    <rdf:RDF>
      <cc:Work
         rdf:about="">
        <dc:title>MAST Logo Horizontal</dc:title>
      </cc:Work>
    </rdf:RDF>
  </metadata>
</svg>
